<svg xmlns="http://www.w3.org/2000/svg" xmlns:xlink="http://www.w3.org/1999/xlink" width="4743" zoomAndPan="magnify" viewBox="0 0 3557.25 1307.999939" height="1744" preserveAspectRatio="xMidYMid meet" version="1.0"><defs><g/><clipPath id="4688bcb253"><path d="M 0 0.136719 L 988 0.136719 L 988 1307.859375 L 0 1307.859375 Z M 0 0.136719 " clip-rule="nonzero"/></clipPath><clipPath id="3b90c8b69b"><path d="M 1117 0.136719 L 2441 0.136719 L 2441 1307 L 1117 1307 Z M 1117 0.136719 " clip-rule="nonzero"/></clipPath><clipPath id="d7498e23db"><path d="M 2627.691406 508.070312 L 3556.5 508.070312 L 3556.5 828.703125 L 2627.691406 828.703125 Z M 2627.691406 508.070312 " clip-rule="nonzero"/></clipPath><clipPath id="9a2052e73e"><path d="M 2442 430 L 3326 430 L 3326 1307.859375 L 2442 1307.859375 Z M 2442 430 " clip-rule="nonzero"/></clipPath><clipPath id="56eb39fa06"><path d="M 2442.121094 657.015625 L 2668.839844 430.296875 L 3326.136719 1087.59375 L 3099.417969 1314.3125 Z M 2442.121094 657.015625 " clip-rule="nonzero"/></clipPath><clipPath id="be68362ca3"><path d="M 2442 0.136719 L 3326 0.136719 L 3326 881 L 2442 881 Z M 2442 0.136719 " clip-rule="nonzero"/></clipPath><clipPath id="aec9a4f6f6"><path d="M 2668.839844 880.699219 L 2442.117188 653.980469 L 3099.414062 -3.320312 L 3326.136719 223.402344 Z M 2668.839844 880.699219 " clip-rule="nonzero"/></clipPath></defs><g clip-path="url(#4688bcb253)"><g fill="#000000" fill-opacity="1"><g transform="translate(-77.305571, 1310.646901)"><g><path d="M 1064.75 -1003.78125 L 721.34375 -1003.78125 L 721.34375 0 L 404.359375 0 L 404.359375 -1003.78125 L 60.953125 -1003.78125 L 60.953125 -1320.765625 L 1064.75 -1320.765625 Z M 1064.75 -1003.78125 "/></g></g></g></g><g clip-path="url(#3b90c8b69b)"><g fill="#000000" fill-opacity="1"><g transform="translate(1056.464284, 1310.646901)"><g><path d="M 946.890625 -664.453125 L 1383.765625 -227.578125 L 1158.21875 -4.0625 L 721.34375 -440.9375 L 284.46875 -4.0625 L 60.953125 -227.578125 L 497.828125 -664.453125 L 60.953125 -1101.3125 L 286.5 -1324.828125 L 721.34375 -890 L 1158.21875 -1324.828125 L 1383.765625 -1101.3125 Z M 946.890625 -664.453125 "/></g></g></g></g><g clip-path="url(#d7498e23db)"><path fill="#000000" d="M 2627.691406 828.703125 L 2627.691406 508.070312 L 3557.019531 508.070312 L 3557.019531 828.703125 Z M 2627.691406 828.703125 " fill-opacity="1" fill-rule="nonzero"/></g><g clip-path="url(#9a2052e73e)"><g clip-path="url(#56eb39fa06)"><path fill="#000000" d="M 2442.121094 657.015625 L 2668.839844 430.296875 L 3325.976562 1087.429688 L 3099.253906 1314.152344 Z M 2442.121094 657.015625 " fill-opacity="1" fill-rule="nonzero"/></g></g><g clip-path="url(#be68362ca3)"><g clip-path="url(#aec9a4f6f6)"><path fill="#000000" d="M 2668.839844 880.699219 L 2442.117188 653.980469 L 3099.253906 -3.15625 L 3325.972656 223.566406 Z M 2668.839844 880.699219 " fill-opacity="1" fill-rule="nonzero"/></g></g></svg>