<svg xmlns="http://www.w3.org/2000/svg" xmlns:xlink="http://www.w3.org/1999/xlink" width="1563" zoomAndPan="magnify" viewBox="0 0 1172.25 601.499987" height="802" preserveAspectRatio="xMidYMid meet" version="1.0"><defs><g/><clipPath id="d592afd081"><path d="M 824 451 L 969 451 L 969 601 L 824 601 Z M 824 451 " clip-rule="nonzero"/></clipPath><clipPath id="0450da7e7b"><path d="M 952 451 L 1098 451 L 1098 601 L 952 601 Z M 952 451 " clip-rule="nonzero"/></clipPath><clipPath id="0206e6f20a"><path d="M 873.828125 165.113281 L 1170.21875 165.113281 L 1170.21875 267.347656 L 873.828125 267.347656 Z M 873.828125 165.113281 " clip-rule="nonzero"/></clipPath><clipPath id="e188c8b196"><path d="M 814 140 L 1097 140 L 1097 423 L 814 423 Z M 814 140 " clip-rule="nonzero"/></clipPath><clipPath id="a55dfa1d15"><path d="M 814.660156 212.605469 L 886.949219 140.316406 L 1096.53125 349.894531 L 1024.242188 422.1875 Z M 814.660156 212.605469 " clip-rule="nonzero"/></clipPath><clipPath id="23c378d3ed"><path d="M 814 2 L 1097 2 L 1097 284 L 814 284 Z M 814 2 " clip-rule="nonzero"/></clipPath><clipPath id="5d552f8f2d"><path d="M 886.949219 283.925781 L 814.660156 211.636719 L 1024.238281 2.058594 L 1096.527344 74.347656 Z M 886.949219 283.925781 " clip-rule="nonzero"/></clipPath><clipPath id="131f7b2a1a"><path d="M 89.507812 454.070312 L 189.753906 454.070312 L 189.753906 478.839844 L 89.507812 478.839844 Z M 89.507812 454.070312 " clip-rule="nonzero"/></clipPath><clipPath id="9c0ff3b9f9"><path d="M 101.894531 454.070312 L 177.304688 454.070312 C 184.144531 454.070312 189.691406 459.613281 189.691406 466.457031 C 189.691406 473.296875 184.144531 478.839844 177.304688 478.839844 L 101.894531 478.839844 C 95.054688 478.839844 89.507812 473.296875 89.507812 466.457031 C 89.507812 459.613281 95.054688 454.070312 101.894531 454.070312 Z M 101.894531 454.070312 " clip-rule="nonzero"/></clipPath><clipPath id="34184777e4"><path d="M 79.597656 531.988281 L 162.8125 531.988281 L 162.8125 556.757812 L 79.597656 556.757812 Z M 79.597656 531.988281 " clip-rule="nonzero"/></clipPath><clipPath id="458c4ba9dd"><path d="M 91.980469 531.988281 L 150.402344 531.988281 C 157.242188 531.988281 162.785156 537.535156 162.785156 544.375 C 162.785156 551.214844 157.242188 556.757812 150.402344 556.757812 L 91.980469 556.757812 C 85.140625 556.757812 79.597656 551.214844 79.597656 544.375 C 79.597656 537.535156 85.140625 531.988281 91.980469 531.988281 Z M 91.980469 531.988281 " clip-rule="nonzero"/></clipPath><clipPath id="aa456d5a21"><path d="M 94.464844 573.277344 L 177.679688 573.277344 L 177.679688 598.046875 L 94.464844 598.046875 Z M 94.464844 573.277344 " clip-rule="nonzero"/></clipPath><clipPath id="b997fd7109"><path d="M 106.851562 573.277344 L 165.269531 573.277344 C 172.109375 573.277344 177.652344 578.820312 177.652344 585.660156 C 177.652344 592.5 172.109375 598.046875 165.269531 598.046875 L 106.851562 598.046875 C 100.011719 598.046875 94.464844 592.5 94.464844 585.660156 C 94.464844 578.820312 100.011719 573.277344 106.851562 573.277344 Z M 106.851562 573.277344 " clip-rule="nonzero"/></clipPath><clipPath id="7603356fce"><path d="M 104.023438 493.058594 L 175.238281 493.058594 L 175.238281 517.828125 L 104.023438 517.828125 Z M 104.023438 493.058594 " clip-rule="nonzero"/></clipPath><clipPath id="f51305dd9e"><path d="M 116.40625 493.058594 L 162.789062 493.058594 C 169.632812 493.058594 175.175781 498.601562 175.175781 505.441406 C 175.175781 512.285156 169.632812 517.828125 162.789062 517.828125 L 116.40625 517.828125 C 109.566406 517.828125 104.023438 512.285156 104.023438 505.441406 C 104.023438 498.601562 109.566406 493.058594 116.40625 493.058594 Z M 116.40625 493.058594 " clip-rule="nonzero"/></clipPath><clipPath id="16c36fdfa2"><path d="M 60.039062 493 L 99.226562 493 L 99.226562 517.773438 L 60.039062 517.773438 Z M 60.039062 493 " clip-rule="nonzero"/></clipPath><clipPath id="46baeff7f4"><path d="M 72.425781 493 L 86.769531 493 C 93.609375 493 99.15625 498.546875 99.15625 505.386719 C 99.15625 512.226562 93.609375 517.773438 86.769531 517.773438 L 72.425781 517.773438 C 65.582031 517.773438 60.039062 512.226562 60.039062 505.386719 C 60.039062 498.546875 65.582031 493 72.425781 493 Z M 72.425781 493 " clip-rule="nonzero"/></clipPath><clipPath id="9c04e97be5"><path d="M 33.96875 531.988281 L 75.289062 531.988281 L 75.289062 556.757812 L 33.96875 556.757812 Z M 33.96875 531.988281 " clip-rule="nonzero"/></clipPath><clipPath id="02ee6316c9"><path d="M 46.355469 531.988281 L 62.824219 531.988281 C 69.664062 531.988281 75.210938 537.535156 75.210938 544.375 C 75.210938 551.214844 69.664062 556.757812 62.824219 556.757812 L 46.355469 556.757812 C 39.515625 556.757812 33.96875 551.214844 33.96875 544.375 C 33.96875 537.535156 39.515625 531.988281 46.355469 531.988281 Z M 46.355469 531.988281 " clip-rule="nonzero"/></clipPath><clipPath id="782ab9a4b3"><path d="M 14.816406 573.277344 L 43.261719 573.277344 L 43.261719 598.046875 L 14.816406 598.046875 Z M 14.816406 573.277344 " clip-rule="nonzero"/></clipPath><clipPath id="ddcfd19461"><path d="M 27.199219 573.277344 L 30.789062 573.277344 C 37.628906 573.277344 43.175781 578.820312 43.175781 585.660156 C 43.175781 592.5 37.628906 598.046875 30.789062 598.046875 L 27.199219 598.046875 C 20.359375 598.046875 14.816406 592.5 14.816406 585.660156 C 14.816406 578.820312 20.359375 573.277344 27.199219 573.277344 Z M 27.199219 573.277344 " clip-rule="nonzero"/></clipPath><clipPath id="1132682f58"><path d="M 30.046875 493.058594 L 56.558594 493.058594 L 56.558594 517.828125 L 30.046875 517.828125 Z M 30.046875 493.058594 " clip-rule="nonzero"/></clipPath><clipPath id="840d6e4e46"><path d="M 42.433594 493.058594 L 44.113281 493.058594 C 50.953125 493.058594 56.5 498.601562 56.5 505.441406 C 56.5 512.285156 50.953125 517.828125 44.113281 517.828125 L 42.433594 517.828125 C 35.59375 517.828125 30.046875 512.285156 30.046875 505.441406 C 30.046875 498.601562 35.59375 493.058594 42.433594 493.058594 Z M 42.433594 493.058594 " clip-rule="nonzero"/></clipPath><clipPath id="0482d15e80"><path d="M 60.039062 454.070312 L 84.90625 454.070312 L 84.90625 478.839844 L 60.039062 478.839844 Z M 60.039062 454.070312 " clip-rule="nonzero"/></clipPath><clipPath id="63aec7a2e0"><path d="M 72.425781 454.070312 L 72.472656 454.070312 C 79.3125 454.070312 84.855469 459.613281 84.855469 466.457031 C 84.855469 473.296875 79.3125 478.839844 72.472656 478.839844 L 72.425781 478.839844 C 65.582031 478.839844 60.039062 473.296875 60.039062 466.457031 C 60.039062 459.613281 65.582031 454.070312 72.425781 454.070312 Z M 72.425781 454.070312 " clip-rule="nonzero"/></clipPath><clipPath id="8c3ed1417f"><path d="M 51.394531 573.277344 L 86.324219 573.277344 L 86.324219 598.046875 L 51.394531 598.046875 Z M 51.394531 573.277344 " clip-rule="nonzero"/></clipPath><clipPath id="71249cf483"><path d="M 63.78125 573.277344 L 73.859375 573.277344 C 80.699219 573.277344 86.242188 578.820312 86.242188 585.660156 C 86.242188 592.5 80.699219 598.046875 73.859375 598.046875 L 63.78125 598.046875 C 56.941406 598.046875 51.394531 592.5 51.394531 585.660156 C 51.394531 578.820312 56.941406 573.277344 63.78125 573.277344 Z M 63.78125 573.277344 " clip-rule="nonzero"/></clipPath></defs><g fill="#e92626" fill-opacity="1"><g transform="translate(13.23669, 421.016822)"><g><path d="M 339.5 -320.0625 L 230 -320.0625 L 230 0 L 128.9375 0 L 128.9375 -320.0625 L 19.4375 -320.0625 L 19.4375 -421.125 L 339.5 -421.125 Z M 339.5 -320.0625 "/></g></g></g><g fill="#2784ff" fill-opacity="1"><g transform="translate(374.773208, 421.016822)"><g><path d="M 301.921875 -211.859375 L 441.21875 -72.5625 L 369.296875 -1.296875 L 230 -140.59375 L 90.703125 -1.296875 L 19.4375 -72.5625 L 158.734375 -211.859375 L 19.4375 -351.15625 L 91.359375 -422.421875 L 230 -283.78125 L 369.296875 -422.421875 L 441.21875 -351.15625 Z M 301.921875 -211.859375 "/></g></g></g><g fill="#ffbe5b" fill-opacity="1"><g transform="translate(122.50684, 598.252659)"><g><path d="M 69.390625 -107.171875 L 66.109375 -90.34375 L 126.890625 -90.34375 L 119.90625 -55.4375 L 58.921875 -55.4375 L 55.234375 -36.546875 L 127.296875 -36.546875 L 119.90625 0 L 0.40625 0 L 29.15625 -143.71875 L 145.984375 -143.71875 L 138.578125 -107.171875 Z M 69.390625 -107.171875 "/></g></g></g><g fill="#ffbe5b" fill-opacity="1"><g transform="translate(254.320612, 598.252659)"><g><path d="M 107.578125 -71.453125 L 146.1875 0 L 93.828125 0 L 75.96875 -36.953125 L 44.765625 0 L -13.140625 0 L 54.609375 -74.328125 L 18.265625 -143.71875 L 70.015625 -143.71875 L 87.671875 -107.78125 L 118.46875 -143.71875 L 173.078125 -143.71875 Z M 107.578125 -71.453125 "/></g></g></g><g fill="#577eb2" fill-opacity="1"><g transform="translate(404.430653, 598.252659)"><g><path d="M 93 -143.71875 C 112.164062 -143.71875 127.019531 -139.539062 137.5625 -131.1875 C 148.101562 -122.84375 153.375 -111.144531 153.375 -96.09375 C 153.375 -84.039062 150.394531 -73.425781 144.4375 -64.25 C 138.476562 -55.082031 129.988281 -47.96875 118.96875 -42.90625 C 107.957031 -37.84375 95.195312 -35.3125 80.6875 -35.3125 L 55.84375 -35.3125 L 48.859375 0 L 0.40625 0 L 29.15625 -143.71875 Z M 83.15625 -72.6875 C 89.863281 -72.6875 95.0625 -74.359375 98.75 -77.703125 C 102.445312 -81.054688 104.296875 -85.75 104.296875 -91.78125 C 104.296875 -101.5 98.273438 -106.359375 86.234375 -106.359375 L 70.015625 -106.359375 L 63.234375 -72.6875 Z M 83.15625 -72.6875 "/></g></g></g><g fill="#4570a8" fill-opacity="1"><g transform="translate(550.619516, 598.252659)"><g><path d="M 153.375 -96.5 C 153.375 -83.769531 149.984375 -72.644531 143.203125 -63.125 C 136.429688 -53.613281 126.882812 -46.535156 114.5625 -41.890625 L 138.578125 0 L 88.28125 0 L 67.953125 -36.140625 L 56.046875 -36.140625 L 48.859375 0 L 0.40625 0 L 29.15625 -143.71875 L 93.625 -143.71875 C 112.507812 -143.71875 127.1875 -139.578125 137.65625 -131.296875 C 148.132812 -123.015625 153.375 -111.414062 153.375 -96.5 Z M 104.296875 -91.78125 C 104.296875 -101.5 98.273438 -106.359375 86.234375 -106.359375 L 70.015625 -106.359375 L 63.234375 -72.6875 L 83.15625 -72.6875 C 89.863281 -72.6875 95.0625 -74.359375 98.75 -77.703125 C 102.445312 -81.054688 104.296875 -85.75 104.296875 -91.78125 Z M 104.296875 -91.78125 "/></g></g></g><g fill="#2e61a6" fill-opacity="1"><g transform="translate(697.250891, 598.252659)"><g><path d="M 69.390625 -107.171875 L 66.109375 -90.34375 L 126.890625 -90.34375 L 119.90625 -55.4375 L 58.921875 -55.4375 L 55.234375 -36.546875 L 127.296875 -36.546875 L 119.90625 0 L 0.40625 0 L 29.15625 -143.71875 L 145.984375 -143.71875 L 138.578125 -107.171875 Z M 69.390625 -107.171875 "/></g></g></g><g clip-path="url(#d592afd081)"><g fill="#1b56a6" fill-opacity="1"><g transform="translate(829.11402, 598.252659)"><g><path d="M 57.484375 3.28125 C 45.023438 3.28125 33.320312 1.945312 22.375 -0.71875 C 11.425781 -3.382812 2.394531 -6.910156 -4.71875 -11.296875 L 13.96875 -47.015625 C 29.425781 -38.117188 45.578125 -33.671875 62.421875 -33.671875 C 68.578125 -33.671875 73.296875 -34.421875 76.578125 -35.921875 C 79.867188 -37.429688 81.515625 -39.488281 81.515625 -42.09375 C 81.515625 -44.550781 79.835938 -46.53125 76.484375 -48.03125 C 73.128906 -49.539062 67.820312 -51.1875 60.5625 -52.96875 C 50.976562 -55.4375 43.039062 -57.9375 36.75 -60.46875 C 30.457031 -63 24.945312 -66.898438 20.21875 -72.171875 C 15.5 -77.441406 13.140625 -84.382812 13.140625 -93 C 13.140625 -103.8125 16.046875 -113.289062 21.859375 -121.4375 C 27.679688 -129.582031 36.066406 -135.878906 47.015625 -140.328125 C 57.960938 -144.773438 70.898438 -147 85.828125 -147 C 96.492188 -147 106.445312 -145.9375 115.6875 -143.8125 C 124.925781 -141.695312 132.898438 -138.65625 139.609375 -134.6875 L 122.15625 -99.375 C 116.550781 -102.925781 110.359375 -105.59375 103.578125 -107.375 C 96.804688 -109.15625 89.859375 -110.046875 82.734375 -110.046875 C 76.035156 -110.046875 70.835938 -109.085938 67.140625 -107.171875 C 63.441406 -105.253906 61.59375 -102.992188 61.59375 -100.390625 C 61.59375 -97.796875 63.269531 -95.742188 66.625 -94.234375 C 69.976562 -92.734375 75.488281 -91.09375 83.15625 -89.3125 C 92.457031 -87.125 100.289062 -84.796875 106.65625 -82.328125 C 113.019531 -79.867188 118.53125 -76.035156 123.1875 -70.828125 C 127.84375 -65.628906 130.171875 -58.785156 130.171875 -50.296875 C 130.171875 -39.617188 127.226562 -30.242188 121.34375 -22.171875 C 115.457031 -14.097656 107.035156 -7.835938 96.078125 -3.390625 C 85.128906 1.054688 72.265625 3.28125 57.484375 3.28125 Z M 57.484375 3.28125 "/></g></g></g></g><g clip-path="url(#0450da7e7b)"><g fill="#004aad" fill-opacity="1"><g transform="translate(957.658446, 598.252659)"><g><path d="M 57.484375 3.28125 C 45.023438 3.28125 33.320312 1.945312 22.375 -0.71875 C 11.425781 -3.382812 2.394531 -6.910156 -4.71875 -11.296875 L 13.96875 -47.015625 C 29.425781 -38.117188 45.578125 -33.671875 62.421875 -33.671875 C 68.578125 -33.671875 73.296875 -34.421875 76.578125 -35.921875 C 79.867188 -37.429688 81.515625 -39.488281 81.515625 -42.09375 C 81.515625 -44.550781 79.835938 -46.53125 76.484375 -48.03125 C 73.128906 -49.539062 67.820312 -51.1875 60.5625 -52.96875 C 50.976562 -55.4375 43.039062 -57.9375 36.75 -60.46875 C 30.457031 -63 24.945312 -66.898438 20.21875 -72.171875 C 15.5 -77.441406 13.140625 -84.382812 13.140625 -93 C 13.140625 -103.8125 16.046875 -113.289062 21.859375 -121.4375 C 27.679688 -129.582031 36.066406 -135.878906 47.015625 -140.328125 C 57.960938 -144.773438 70.898438 -147 85.828125 -147 C 96.492188 -147 106.445312 -145.9375 115.6875 -143.8125 C 124.925781 -141.695312 132.898438 -138.65625 139.609375 -134.6875 L 122.15625 -99.375 C 116.550781 -102.925781 110.359375 -105.59375 103.578125 -107.375 C 96.804688 -109.15625 89.859375 -110.046875 82.734375 -110.046875 C 76.035156 -110.046875 70.835938 -109.085938 67.140625 -107.171875 C 63.441406 -105.253906 61.59375 -102.992188 61.59375 -100.390625 C 61.59375 -97.796875 63.269531 -95.742188 66.625 -94.234375 C 69.976562 -92.734375 75.488281 -91.09375 83.15625 -89.3125 C 92.457031 -87.125 100.289062 -84.796875 106.65625 -82.328125 C 113.019531 -79.867188 118.53125 -76.035156 123.1875 -70.828125 C 127.84375 -65.628906 130.171875 -58.785156 130.171875 -50.296875 C 130.171875 -39.617188 127.226562 -30.242188 121.34375 -22.171875 C 115.457031 -14.097656 107.035156 -7.835938 96.078125 -3.390625 C 85.128906 1.054688 72.265625 3.28125 57.484375 3.28125 Z M 57.484375 3.28125 "/></g></g></g></g><g clip-path="url(#0206e6f20a)"><path fill="#1b56a6" d="M 873.828125 267.347656 L 873.828125 165.113281 L 1170.148438 165.113281 L 1170.148438 267.347656 Z M 873.828125 267.347656 " fill-opacity="1" fill-rule="nonzero"/></g><g clip-path="url(#e188c8b196)"><g clip-path="url(#a55dfa1d15)"><path fill="#004aad" d="M 814.660156 212.605469 L 886.949219 140.316406 L 1096.480469 349.84375 L 1024.1875 422.132812 Z M 814.660156 212.605469 " fill-opacity="1" fill-rule="nonzero"/></g></g><g clip-path="url(#23c378d3ed)"><g clip-path="url(#5d552f8f2d)"><path fill="#004aad" d="M 886.949219 283.925781 L 814.660156 211.636719 L 1024.1875 2.109375 L 1096.476562 74.398438 Z M 886.949219 283.925781 " fill-opacity="1" fill-rule="nonzero"/></g></g><g clip-path="url(#131f7b2a1a)"><g clip-path="url(#9c0ff3b9f9)"><path fill="#ffbe5b" d="M 89.507812 454.070312 L 189.65625 454.070312 L 189.65625 478.839844 L 89.507812 478.839844 Z M 89.507812 454.070312 " fill-opacity="1" fill-rule="nonzero"/></g></g><g clip-path="url(#34184777e4)"><g clip-path="url(#458c4ba9dd)"><path fill="#ffbe5b" d="M 79.597656 531.988281 L 162.8125 531.988281 L 162.8125 556.757812 L 79.597656 556.757812 Z M 79.597656 531.988281 " fill-opacity="1" fill-rule="nonzero"/></g></g><g clip-path="url(#aa456d5a21)"><g clip-path="url(#b997fd7109)"><path fill="#ffbe5b" d="M 94.464844 573.277344 L 177.679688 573.277344 L 177.679688 598.046875 L 94.464844 598.046875 Z M 94.464844 573.277344 " fill-opacity="1" fill-rule="nonzero"/></g></g><g clip-path="url(#7603356fce)"><g clip-path="url(#f51305dd9e)"><path fill="#ffbe5b" d="M 104.023438 493.058594 L 175.140625 493.058594 L 175.140625 517.828125 L 104.023438 517.828125 Z M 104.023438 493.058594 " fill-opacity="1" fill-rule="nonzero"/></g></g><g clip-path="url(#16c36fdfa2)"><g clip-path="url(#46baeff7f4)"><path fill="#ffbe5b" d="M 60.039062 493 L 99.128906 493 L 99.128906 517.773438 L 60.039062 517.773438 Z M 60.039062 493 " fill-opacity="1" fill-rule="nonzero"/></g></g><g clip-path="url(#9c04e97be5)"><g clip-path="url(#02ee6316c9)"><path fill="#ffbe5b" d="M 33.96875 531.988281 L 75.191406 531.988281 L 75.191406 556.757812 L 33.96875 556.757812 Z M 33.96875 531.988281 " fill-opacity="1" fill-rule="nonzero"/></g></g><g clip-path="url(#782ab9a4b3)"><g clip-path="url(#ddcfd19461)"><path fill="#ffbe5b" d="M 14.816406 573.277344 L 43.167969 573.277344 L 43.167969 598.046875 L 14.816406 598.046875 Z M 14.816406 573.277344 " fill-opacity="1" fill-rule="nonzero"/></g></g><g clip-path="url(#1132682f58)"><g clip-path="url(#840d6e4e46)"><path fill="#ffbe5b" d="M 30.046875 493.058594 L 56.464844 493.058594 L 56.464844 517.828125 L 30.046875 517.828125 Z M 30.046875 493.058594 " fill-opacity="1" fill-rule="nonzero"/></g></g><g clip-path="url(#0482d15e80)"><g clip-path="url(#63aec7a2e0)"><path fill="#ffbe5b" d="M 60.039062 454.070312 L 84.808594 454.070312 L 84.808594 478.839844 L 60.039062 478.839844 Z M 60.039062 454.070312 " fill-opacity="1" fill-rule="nonzero"/></g></g><g clip-path="url(#8c3ed1417f)"><g clip-path="url(#71249cf483)"><path fill="#ffbe5b" d="M 51.394531 573.277344 L 86.230469 573.277344 L 86.230469 598.046875 L 51.394531 598.046875 Z M 51.394531 573.277344 " fill-opacity="1" fill-rule="nonzero"/></g></g></svg>